<?xml version="1.0" standalone="no"?>
<!DOCTYPE svg PUBLIC "-//W3C//DTD SVG 20010904//EN"
 "http://www.w3.org/TR/2001/REC-SVG-20010904/DTD/svg10.dtd">
<svg version="1.0" xmlns="http://www.w3.org/2000/svg"
 width="1024.000000pt" height="1024.000000pt" viewBox="0 0 1024.000000 1024.000000"
 preserveAspectRatio="xMidYMid meet">

<g transform="translate(0.000000,1024.000000) scale(0.100000,-0.100000)"
fill="#000000" stroke="none">
<path d="M0 5120 l0 -5120 5120 0 5120 0 0 5120 0 5120 -5120 0 -5120 0 0
-5120z m2400 668 c0 -8 -11 -115 -25 -239 -23 -216 -47 -536 -60 -819 -6 -117
-5 -133 8 -120 16 17 343 393 397 456 19 22 169 195 333 382 l298 342 107 2
c240 4 452 3 449 -3 -2 -6 -1148 -1299 -1342 -1514 -55 -61 -138 -155 -185
-208 l-85 -97 -222 0 -221 0 -6 38 c-6 40 -22 368 -31 652 -9 258 22 917 51
1100 l5 35 265 4 c223 3 264 1 264 -11z m3448 1 c-2 -4 -70 -85 -153 -180 -82
-94 -156 -180 -163 -191 -13 -17 -47 -18 -849 -18 -757 0 -835 1 -829 16 30
77 181 237 277 291 65 38 161 71 238 83 69 10 1483 10 1479 -1z m1539 -22
c103 -35 187 -107 223 -189 70 -162 13 -434 -165 -788 -216 -429 -502 -695
-851 -792 -77 -21 -97 -22 -711 -25 l-632 -4 28 68 c16 37 81 190 146 338 143
330 260 601 327 758 l50 117 260 0 260 0 -6 -25 c-6 -24 -282 -659 -310 -714
-9 -16 -25 -52 -36 -81 l-20 -51 268 3 268 3 69 34 c133 65 273 237 394 482
116 234 148 393 92 453 -41 43 -79 46 -640 46 -292 0 -531 2 -531 4 0 3 34 83
76 178 42 95 80 183 84 195 l9 21 633 -1 633 -2 82 -28z m1303 25 c0 -8 -162
-378 -169 -385 -4 -4 -125 -6 -268 -5 l-260 3 82 190 82 190 94 5 c102 5 439
7 439 2z m-4390 -551 c0 -4 -13 -38 -30 -74 -16 -37 -30 -69 -30 -72 0 -3 267
-6 594 -7 l594 -3 -161 -190 -160 -190 -524 -5 -525 -5 -53 -120 c-30 -66 -54
-126 -55 -133 0 -7 11 -24 25 -37 l24 -25 571 0 c379 0 570 -3 570 -10 0 -6
-39 -98 -86 -205 l-86 -195 -612 0 c-389 0 -633 4 -670 11 -178 33 -276 141
-276 305 0 91 20 162 100 349 76 179 257 592 266 606 7 12 524 12 524 0z
m4150 3 c0 -3 -31 -76 -69 -162 -38 -86 -157 -360 -264 -607 -108 -248 -201
-463 -208 -478 l-12 -27 -254 0 c-159 0 -253 4 -253 10 0 9 82 201 317 745 52
121 119 276 148 345 29 69 58 137 65 153 l13 27 259 0 c142 0 258 -2 258 -6z"/>
</g>
</svg>
